<?xml version="1.0" encoding="UTF-8"?>
<!DOCTYPE svg PUBLIC "-//W3C//DTD SVG 1.1//EN" "http://www.w3.org/Graphics/SVG/1.1/DTD/svg11.dtd">
<!-- Creator: CorelDRAW -->
<svg xmlns="http://www.w3.org/2000/svg" xml:space="preserve" width="287.376mm" height="214.784mm" version="1.1" style="shape-rendering:geometricPrecision; text-rendering:geometricPrecision; image-rendering:optimizeQuality; fill-rule:evenodd; clip-rule:evenodd"
viewBox="0 0 5568.34 4161.77"
 xmlns:xlink="http://www.w3.org/1999/xlink"
 xmlns:xodm="http://www.corel.com/coreldraw/odm/2003">
 <defs>
  <style type="text/css">
   <![CDATA[
    .fil0 {fill:url(#id0)}
   ]]>
  </style>
  <linearGradient id="id0" gradientUnits="userSpaceOnUse" x1="2784.17" y1="0" x2="2784.17" y2="4161.77">
   <stop offset="0" style="stop-opacity:1; stop-color:#A4AAB5"/>
   <stop offset="0.45098" style="stop-opacity:1; stop-color:#D1D4D9"/>
   <stop offset="1" style="stop-opacity:1; stop-color:#FEFEFE"/>
  </linearGradient>
 </defs>
 <g id="Layer_x0020_1">
  <metadata id="CorelCorpID_0Corel-Layer"/>
  <path class="fil0" d="M4706.12 921.99c-38.98,-93.31 -211.92,-623.31 -239.06,-702.35m258.61 0l197.49 575.02m-4904.72 -793.16l447.85 0c119.25,0 236.84,73.37 294.04,176.31 35.04,63.07 36.14,134.43 34.21,215.1 -1.63,68.31 -4.81,139.79 -43.53,209.23 -116.68,209.25 -382.58,186.29 -382.27,437.79 0.07,53.67 2.25,119.64 40.27,167.45 111.29,139.96 375.26,209.41 375.99,403.75l9.45 2548.32 -324.6 -0c24.96,-0.76 68.5,-26.11 70.87,-60.4 2.34,-33.92 -0.7,-2332.49 -1.61,-2382.56 -1.71,-93.99 -16.23,-185.62 -172.92,-284.47l3.91 2727.43 -260.98 0 0 -3940.78 -108.15 -188.17c-4.58,-7.97 8.28,-29.01 17.48,-29.01zm5530.72 0l-206.2 0 -32.81 0 -195.39 0c-1.52,0 -3.12,0.54 -4.69,1.49 -3.42,2.06 -6.84,6.09 -9.38,10.58 -2.55,4.5 -4.25,9.49 -4.25,13.48 0,1.73 0.32,3.29 1.02,4.57l103.16 188.02 -230.09 669.93 -7.28 21.06 -40.1 -115.97 -0 0 -197.49 -575.02 103.16 -188.02c0.7,-1.27 1.02,-2.84 1.02,-4.57 0,-3.99 -1.7,-8.99 -4.25,-13.48 -2.54,-4.49 -5.96,-8.51 -9.38,-10.58 -1.57,-0.95 -3.16,-1.49 -4.69,-1.49l-195.39 0 -32.81 0 -206.2 0c-1.6,0 -3.26,0.54 -4.91,1.49 -3.58,2.06 -7.16,6.09 -9.82,10.58 -2.67,4.5 -4.45,9.49 -4.45,13.48 0,1.73 0.33,3.29 1.07,4.57l108.05 188.02 52.83 153.84c41.66,125.66 98.67,297.37 140.32,417.75l0.06 0.17c8.71,25.19 16.75,48.1 23.84,67.9l22.01 62.7 129.51 368.9 0 2868.58 257.18 0 0 -2510.73 0 -363.37c124.64,-355.03 242.78,-710.39 364.94,-1066.1l109.53 -187.64c0.73,-1.27 1.07,-2.84 1.07,-4.57 0,-3.99 -1.78,-8.99 -4.45,-13.48 -2.66,-4.49 -6.24,-8.51 -9.82,-10.58 -1.65,-0.95 -3.31,-1.49 -4.91,-1.49zm-976.02 2980.01l0 1177.95 -257.18 0 0 -1177.95 257.18 0zm-669.1 -2980.01l224.37 0c9.02,0 16.4,7.37 16.4,16.41l0 858.72 408.37 0c7.08,0 12.87,5.79 12.87,12.87l0 176.09c0,7.08 -5.79,12.87 -12.87,12.87l-408.37 0 0 3080.99 -257.18 0 0 -3093.87 0 -176.09 0 -871.6c0,-9.04 7.38,-16.41 16.4,-16.41zm-2428.43 2980.01l255.64 0 0 1177.95 -255.64 0 0 -1177.95zm3.2 -2189.93c0,155.78 -171.95,147.67 -171.95,0l0 -483.97c-3.84,-142.81 171.95,-159.91 171.95,0 0,161.32 0,322.64 0,483.97zm-171.95 301.47l0 3066.41 -255.64 0 0 -3367.88 0 -483.97c-5.06,-401.14 684.13,-415.11 684.13,0l0 483.97c0,189.99 -117.6,318.6 -308.1,318.29 -40.31,-0.07 -81.18,-5.8 -120.39,-16.83zm704.05 -489.21l223.33 0c8.88,0 16.15,-7.27 16.15,-16.15l0 -279.23c0,-159.91 175.79,-142.81 171.95,0l0 192.67c-4.41,34.33 -18.91,68.55 -40.92,96.55 -110.05,139.95 -386.57,229.21 -386.66,423.55l-1.5 3136.73 262.1 0c-0.87,-495.47 -5.35,-3029.59 -4.96,-3051.18 1.69,-93.99 18.42,-185.62 173.37,-284.47l4.59 3335.65 251.35 0 -1.73 -3656.83 0 -192.67c2.24,-177.38 -192.17,-360.68 -442.11,-294.7 -86.46,22.82 -134.65,76.4 -137.71,74.93l-87.24 -41.9c-8,-3.84 -16.15,7.28 -16.15,16.15l0 524.76c0,8.88 7.27,16.15 16.15,16.15zm840.08 -600.04l432.42 0.67 432.42 -0.67c9.2,-0.01 22.06,21.04 17.48,29.01l-108.15 188.17 0 3940.78 -260.98 0 3.91 -2727.43 -2.55 -392.08 2.45 -353.57 0.66 -469.36 -85.23 -148.05 -85.23 148.05 0.66 469.36 2.45 353.57 -2.55 392.08 3.91 2727.43 -260.98 0 0 -137.49 0 -3803.29 -108.15 -188.17c-4.58,-7.97 8.28,-29.02 17.48,-29.01zm-2484.69 206.32l91.96 0c24.96,0.76 58.68,28.26 70.87,60.4 13.92,36.7 7.05,81.3 6.14,131.37 -1.71,93.99 -12.27,185.62 -168.97,284.47l0 -476.25z"/>
 </g>
</svg>
